<?xml version="1.0" encoding="UTF-8" standalone="no"?><svg width="178" height="154" viewBox="0 0 178 154" xmlns="http://www.w3.org/2000/svg" xmlns:xlink="http://www.w3.org/1999/xlink"><svg width="22" height="22" viewBox="-2 -2 22 22" id="src--svg--align_center" x="44" y="132"><title>居中对齐</title><g transform="translate(-343 -103)" fill="none" fill-rule="evenodd"><g transform="translate(345 105)" fill="#525C6F"><path d="M3.583 5H10V4H3v1h.583zM3.583 9H10V8H3v1h.583zM3.318 13H10v-1H3v1h.318zM.59 11H13v-1H0v1h.59zM.59 7H13V6H0v1h.59zM3.583 1H10V0H3v1h.583zM.59 3H13V2H0v1h.59z"/></g></g></svg><svg width="22" height="22" viewBox="-2 -2 22 22" id="src--svg--align_justify" x="112" y="22"><title>两端对齐</title><g transform="translate(-343 -43)" fill="none" fill-rule="evenodd"><g transform="translate(345 45)" fill="#525C6F"><path d="M1.083 7H13V6H0v1h1.083zM1.083 11H13v-1H0v1h1.083zM.59 13H13v-1H0v1h.59zM.59 9H13V8H0v1h.59zM.59 5H13V4H0v1h.59zM1.083 3H13V2H0v1h1.083zM.59 1H13V0H0v1h.59z"/></g></g></svg><svg width="22" height="22" viewBox="-2 -2 22 22" id="src--svg--align_left" y="22"><title>左对齐</title><g transform="translate(-343 -16)" fill="none" fill-rule="evenodd"><g transform="translate(345 18)" fill="#525C6F"><path d="M.583 7H7V6H0v1h.583zM.583 11H7v-1H0v1h.583zM.59 13H13v-1H0v1h.59zM.59 9H13V8H0v1h.59zM.59 5H13V4H0v1h.59zM.583 3H7V2H0v1h.583zM.59 1H13V0H0v1h.59z"/></g></g></svg><svg width="22" height="22" viewBox="-2 -2 22 22" id="src--svg--align_right" x="22" y="22"><title>右对齐</title><g transform="translate(-343 -73)" fill="none" fill-rule="evenodd"><g transform="translate(345 75)" fill="#525C6F"><path d="M6.583 7H13V6H6v1h.583zM6.583 11H13v-1H6v1h.583zM.59 13H13v-1H0v1h.59zM.59 9H13V8H0v1h.59zM.59 5H13V4H0v1h.59zM6.583 3H13V2H6v1h.583zM.59 1H13V0H0v1h.59z"/></g></g></svg><svg width="22" height="22" viewBox="-2 -2 22 22" id="src--svg--attachment" x="46"><title>附件</title><g transform="translate(-64 -78)" fill="none" fill-rule="evenodd"><path d="M67.363 93.364l-.006-.005a3.09 3.09 0 0 1-.374-4.34l5.244-6.25c1.512-1.802 4.161-2.079 5.905-.615 1.724 1.446 1.896 4.09.384 5.891l-3.82 4.552a.48.48 0 1 1-.737-.619l3.82-4.551c1.19-1.42 1.074-3.412-.266-4.536-1.336-1.122-3.378-.9-4.549.496l-5.244 6.25a2.126 2.126 0 0 0 .257 2.986l.005.004c.436.366.992.541 1.564.492a2.13 2.13 0 0 0 1.46-.757l5.223-6.225c.199-.237.293-.536.266-.843a1.14 1.14 0 0 0-.407-.782l-.002-.002a1.147 1.147 0 0 0-.843-.262 1.145 1.145 0 0 0-.783.41l-4.196 5.032a.482.482 0 0 1-.74-.616l4.198-5.034a2.1 2.1 0 0 1 1.435-.752c.563-.05 1.111.121 1.546.483l.004.003c.432.363.697.872.746 1.435a2.099 2.099 0 0 1-.486 1.547l-5.224 6.225a3.086 3.086 0 0 1-2.115 1.096 3.085 3.085 0 0 1-2.265-.713" fill="#525C6F"/></g></svg><svg width="22" height="22" viewBox="-2 -2 22 22" id="src--svg--auto_wrap" x="46" y="22"><title>自动换行</title><g transform="translate(-373 -73)" fill="none" fill-rule="evenodd"><g transform="translate(375 75)"><path fill="#525C6F" d="M0 0h14v1H0zM6 13.001v1h1v1h1V10H7v1.001H6v1H5v1h1zM0 4h14v1H0zM0 8h12v1H0zM0 12h3v1H0zM8 12h4v1H8z"/><path fill="#BDC1C8" d="M13 8h1v1h-1zM13 12h1v1h-1z"/><path fill="#686F7E" d="M12 8h1v1h-1z"/><path fill="#6E7789" d="M12 12h1v1h-1z"/><path fill="#525C6F" d="M13 9h1v1h-1zM13 10h1v1h-1zM13 11h1v1h-1z"/></g></g></svg><svg width="22" height="22" viewBox="-2 -2 22 22" id="src--svg--bold" y="44"><title>加粗</title><g transform="translate(-107 -17)" fill="none" fill-rule="evenodd"><g transform="translate(112 20)"><path d="M0 11V0h5.04c1.1 0 1.939.258 2.564.79.606.512.872 1.23.872 2.192 0 1.427-1.1 2.073-1.419 2.257.488.17 1.065.689 1.35 1.033.385.466.55 1.039.55 1.8 0 1.12-.314 1.822-1.1 2.368-.657.437-1.654.56-2.817.56H0z" fill="#525C6F"/><path d="M1.517 10h3.415c.742.01 2.725-.224 2.725-2.062C7.657 6.101 5.67 6 4.932 6H1.517v4zM1.517 4.701h3.16c.687.009 2.522-.207 2.522-1.907S5.359 1 4.677 1h-3.16v3.701z" fill="#FFF"/></g></g></svg><svg width="22" height="22" viewBox="-2 -2 22 22" id="src--svg--border_color" x="22" y="44"><title>边框颜色</title><g transform="translate(-503 -73)" fill="none" fill-rule="evenodd"><g transform="translate(505 75)"><path d="M12 11H1V1h7V0H0v13h13v-2h-1v1h1V5h-1v6z" fill="#525C6F"/><path fill="#525C6F" d="M0 11h13v2H0z"/><path fill="#ACB4C4" d="M12 0h1v1h-1z"/><path fill="#525C6F" d="M9 2h3v1H9zM8 3h3v1H8zM7 4h3v1H7zM6 5h3v1H6zM5 6h3v1H5zM5 7h2v1H5z"/><path d="M12 1V0h-1v1h-1v1h1v1h1V2h1V1h-1z" fill="#525C6F"/></g></g></svg><svg width="22" height="22" viewBox="-2 -2 22 22" id="src--svg--checked" x="44" y="44"><title>选中</title><g transform="translate(-659 -16)" fill="none" fill-rule="evenodd"><path d="M675 20l-8.847 9.718-4.153-4.77h.672l3.481 2.031L674.147 20H675z" fill="#525C6F"/></g></svg><svg width="22" height="22" viewBox="-2 -2 22 22" id="src--svg--clean_format" x="68"><title>清楚格式－禁用</title><g transform="translate(-32 -17)" fill="none" fill-rule="evenodd"><g transform="translate(34 20)"><path d="M14.608 0h-6.49c-.272 0-.616.191-.754.427L.12 11.137c-.279.477-.055.863.5.863h6.49c.271 0 .615-.191.752-.427L15.107.863c.28-.477.055-.863-.499-.863z" fill="#CBCBCB"/><path d="M7.03 11H1.45l3.382-5h5.603L7.03 11z" fill="#FFF"/></g></g></svg><svg width="22" height="22" viewBox="-2 -2 22 22" id="src--svg--clean_format_active" x="68" y="22"><title>清楚格式</title><g transform="translate(-32 -47)" fill="none" fill-rule="evenodd"><g transform="translate(34 50)"><path d="M14.608 0h-6.49c-.272 0-.616.191-.754.427L.12 11.137c-.279.477-.055.863.5.863h6.49c.271 0 .615-.191.752-.427L15.107.863c.28-.477.055-.863-.499-.863z" fill="#525C6F"/><path d="M7.03 11H1.45l3.382-5h5.603L7.03 11z" fill="#FFF"/></g></g></svg><svg width="9" height="7" viewBox="-2 -2 9 7" id="src--svg--combo_expand" x="156" y="44"><title>下拉三角</title><g transform="translate(-289 -24)" fill="none" fill-rule="evenodd"><path d="M292 25h2v-1h-5v1h2-1v1h1v1h1v-1h1v-1h-1z" fill="#9098A8"/></g></svg><svg width="22" height="22" viewBox="-2 -2 22 22" id="src--svg--export" y="66"><title>导出</title><g transform="translate(-273 -78)" fill="none" fill-rule="evenodd"><g transform="translate(276 80)" fill="#525C6F"><path d="M11 6.647l-.002-2.28L7.616 1H1c.003 0 0 11.001 0 11.001C1 11.998 6 12 6 12v1H1.01C.451 13 0 12.553 0 12.001V1C0 .447.455 0 1 0h7.027L12 3.954v2.693h-1z"/><path d="M4 9h5v2H4zM8 0l4 4H8V0zM9 7V13h1v-.857h1v-.857h1v-.857h1v-.857h-1v-.858h-1v-.857h-1V7H9z"/></g></g></svg><svg width="22" height="22" viewBox="-2 -2 22 22" id="src--svg--fixed_top" x="22" y="66"><title>置顶</title><g transform="translate(-245 -78)" fill="none" fill-rule="evenodd"><g transform="translate(248 80)"><path fill="#525C6F" d="M0 0h11v1H0zM8 7v6H3V7h1l.004 5L7 12.012V7h1zM6 4h1V3H6v1zM4 4h1V3H4v1z"/><path d="M3 5h1.001V3.999H3V5zM5 3h1V2H5v1z" fill="#525C6F"/><path d="M5 4h1V3H5v1zM6 5h1V4H6v1zM7 6h1V5H7v1zM8 7h1V6H8v1zM4 5h1V4H4v1zM3 6h1V5H3v1zM2 7h1V6H2v1z" fill="#959DAB"/><path d="M2 6h1V5H2v1zM1 7h1V6H1v1zM0 8h4V7H0v1zM7 5h1V3.999H7V5zM8 6h1V5H8v1zM9 7h1V6H9v1zM7 8h4V7H7v1z" fill="#525C6F"/></g></g></svg><svg width="22" height="22" viewBox="-2 -2 22 22" id="src--svg--format_painter" x="44" y="66"><title>格式刷</title><g transform="translate(-66 -17)" fill="none" fill-rule="evenodd"><g transform="translate(69 19)"><path d="M0 0v5h10V0H0z" fill="#525C6F"/><path d="M1 1h8v3H1V1z" fill="#FFF"/><path d="M1 4h8V3H1v1z" fill="#BABFCA"/><path d="M11 3v3H5v2H4v6h3V8H6V7h6V3h-1z" fill="#525C6F"/><path d="M5 9h1v4H5V9z" fill="#FFF"/></g></g></svg><svg width="22" height="22" viewBox="-2 -2 22 22" id="src--svg--hr" x="66" y="66"><title>横线</title><g transform="translate(-124 -78)" fill="none" fill-rule="evenodd"><path fill="#525C6F" d="M126 87h14v1h-14z"/></g></svg><svg width="22" height="22" viewBox="-2 -2 22 22" id="src--svg--image" x="90"><title>图片</title><g transform="translate(-32 -78)" fill="none" fill-rule="evenodd"><g transform="translate(34 81)"><path d="M1.007 0C.45 0 0 .449 0 1V12c0 .552.451 1 1.007 1h11.986C13.55 13 14 12.553 14 12V1C14 .447 13.549 0 12.993 0H1.007z" fill="#525C6F"/><path d="M13 12.002C13 11.998 1.007 12 1.007 12 1.001 12 1 .998 1 .998 1 1 12.993 1 12.993 1 12.999 1 13 12.003 13 12.003z" fill="#FFF"/><path d="M11.977 8a2.807 2.807 0 0 1-1.831.687A2.83 2.83 0 0 1 7.51 6.876c-.006.002-.011.007-.018.009A2.825 2.825 0 0 0 4.832 5 2.833 2.833 0 0 0 2 7.833c0 .057.014.111.017.167H2v3h10V8h-.023zM10 6a1.5 1.5 0 1 0-.001-3.001A1.5 1.5 0 0 0 10 6" fill="#525C6F"/></g></g></svg><svg width="22" height="22" viewBox="-2 -2 22 22" id="src--svg--indent" x="90" y="22"><title>增加缩进</title><g transform="translate(-373 -16)" fill="none" fill-rule="evenodd"><g transform="translate(375 18)" fill="#525C6F"><path d="M7.417 10H12V9H7v1h.417zM.59 13H13v-1H0v1h.59zM7.227 8H12V7H7v1h.227zM7.417 4H12V3H7v1h.417zM7.417 6H12V5H7v1h.417zM.59 1H13V0H0v1h.59zM1 4V9h1v-.999h1v-1h1v-1H3v-1H2V4H1z"/></g></g></svg><svg width="22" height="22" viewBox="-2 -2 22 22" id="src--svg--inline_height" x="90" y="44"><title>行高</title><g transform="translate(-505 -16)" fill="none" fill-rule="evenodd"><g transform="translate(506 18)" fill="#525C6F"><path d="M7.667 11H15v-1H7v1h.667zM2 0v1H1v1H0v1h2v7H0v1h1v1h1v1h1v-1h1v-1h1.001v-1H3V3h2.001V2H4V1H3V0H2zM7.667 9H15V8H7v1h.667zM7.667 7H15V6H7v1h.667zM7.182 13H11v-1H7v1h.182zM7.364 5H15V4H7v1h.364zM7.667 3H15V2H7v1h.667zM7.364 1H15V0H7v1h.364z"/></g></g></svg><svg width="22" height="22" viewBox="-2 -2 22 22" id="src--svg--italic" x="90" y="66"><title>斜体</title><g transform="translate(-143 -17)" fill="none" fill-rule="evenodd"><path d="M151.239 20l-.186.995h1.385l-1.763 9.015h-1.21l-.192.99H153.043l.217-.99h-1.42l1.773-9.015h1.258l.211-.995h-3.843z" fill="#525C6F"/></g></svg><svg width="22" height="22" viewBox="-2 -2 22 22" id="src--svg--line_through" y="88"><title>删除线</title><g transform="translate(-215 -17)" fill="none" fill-rule="evenodd"><g transform="translate(217 20)"><path d="M8.967.816c.712.563 1.113 1.408 1.216 2.52h-1.2c-.134-.77-.43-1.334-.89-1.705-.475-.385-1.141-.563-2.002-.563-.785 0-1.393.118-1.837.385-.504.297-.756.741-.756 1.35 0 .533.296.963.903 1.289.267.148.92.37 1.942.666 1.394.416 2.313.757 2.758 1.024.874.534 1.32 1.275 1.32 2.238 0 .92-.372 1.66-1.112 2.194-.742.52-1.735.785-2.995.785-1.246 0-2.223-.266-2.935-.8C2.55 9.562 2.09 8.598 2 7.294h1.202c.103.92.43 1.6.963 2.03.49.386 1.2.594 2.15.594.86 0 1.572-.163 2.105-.49.533-.326.8-.77.8-1.334 0-.667-.356-1.185-1.052-1.556-.297-.178-1.053-.43-2.239-.77-1.275-.386-2.09-.683-2.43-.86-.816-.475-1.216-1.158-1.216-2.047 0-.919.385-1.645 1.171-2.15C4.149.238 5.054 0 6.151 0c1.186 0 2.134.267 2.816.816" fill="#525C6F"/><path fill="#525C6F" d="M0 5h13v1H0z"/><path fill="#FFF" d="M1 6h9.983v.5H1z"/></g></g></svg><svg width="22" height="22" viewBox="-2 -2 22 22" id="src--svg--link" x="22" y="88"><title>链接</title><g transform="translate(-154 -78)" fill="none" fill-rule="evenodd"><g transform="translate(156 84)" fill="#525C6F"><path d="M5.125 7.2H3.6A3.604 3.604 0 0 1 0 3.6C0 1.615 1.615 0 3.6 0h2c1.985 0 3.6 1.615 3.6 3.6a.6.6 0 1 1-1.2 0c0-1.323-1.077-2.4-2.4-2.4h-2a2.403 2.403 0 0 0-2.4 2.4C1.2 4.923 2.277 6 3.6 6h1.525a.6.6 0 1 1 0 1.2"/><path d="M10.6 7.2h-2A3.604 3.604 0 0 1 5 3.6a.6.6 0 1 1 1.2 0C6.2 4.923 7.277 6 8.6 6h2C11.923 6 13 4.923 13 3.6s-1.077-2.4-2.4-2.4H9.075a.6.6 0 0 1 0-1.2H10.6c1.985 0 3.6 1.615 3.6 3.6s-1.615 3.6-3.6 3.6"/></g></g></svg><svg width="22" height="22" viewBox="-2 -2 22 22" id="src--svg--list_ol" x="44" y="88"><title>项目编号</title><g transform="translate(-469 -16)" fill="none" fill-rule="evenodd"><g transform="translate(471 18)"><path d="M0 5v1h1v1H0v1h3V7H2V6h1V5H0zM0 0v1h1v2h1V0H0zM0 10v1h2v1H0v1h3v-3H0z" fill="#525C6F"/><path fill="#A9AEB7" d="M1 11h1v1H1z"/><path fill="#525C6F" d="M5 6h8v1H5zM5 11h8v1H5zM5 1h8v1H5z"/></g></g></svg><svg width="22" height="22" viewBox="-2 -2 22 22" id="src--svg--list_ul" x="66" y="88"><title>无序列表</title><g transform="translate(-433 -16)" fill="none" fill-rule="evenodd"><g transform="translate(435 18)" fill="#525C6F"><path d="M0 10h2v2H0zM0 5h2v2H0zM0 0h2v2H0zM4 1h9v1H4zM4 6h9v1H4zM4 11h9v1H4z"/></g></g></svg><svg width="22" height="22" viewBox="-2 -2 22 22" id="src--svg--normal_mode" x="88" y="88"><title>普通视图</title><path d="M4 14.001L13.998 14C13.996 14 14 2.999 14 2.999L4.002 3C4.004 3 4 14.001 4 14.001zM4.002 2h9.996A1 1 0 0 1 15 2.999V14c0 .552-.456.999-1.002.999H4.002A1 1 0 0 1 3 14.001V3C3 2.447 3.456 2 4.002 2zM6.5 5H12V4H6v1h.5zm0 2H12V6H6v1h.5zm0 2H12V8H6v1h.5zm0 2H12v-1H6v1h.5zm0 2H12v-1H6v1h.5z" fill="#525C6F" fill-rule="evenodd"/></svg><svg width="22" height="22" viewBox="-2 -2 22 22" id="src--svg--outdent" x="112"><title>减少缩进</title><g transform="translate(-403 -16)" fill="none" fill-rule="evenodd"><g transform="translate(405 18)" fill="#525C6F"><path d="M1.417 10H6V9H1v1h.417zM.59 13H13v-1H0v1h.59zM1.227 8H6V7H1v1h.227zM1.417 4H6V3H1v1h.417zM1.417 6H6V5H1v1h.417zM.59 1H13V0H0v1h.59zM12 4V9h-1v-.999h-1v-1H9v-1h1v-1h1V4h1z"/></g></g></svg><svg width="22" height="22" viewBox="-2 -2 22 22" id="src--svg--page_mode" x="24"><title>阅读视图</title><path d="M4 2.999V14L4.002 14h9.996c-.002 0 .002-.004.002.001V3L13.998 3H4.002C4.004 3 4 3.004 4 2.999m-1 0C3 2.447 3.456 2 4.002 2h9.996A1 1 0 0 1 15 2.999V14c0 .552-.456.999-1.002.999H4.002A1 1 0 0 1 3 14.001V3M6 5v7h6V5M5 4h8v9H5V4m2.5 3H11V6H7v1h.5zm0 2H11V8H7v1h.5zm0 2H11v-1H7v1h.5z" fill="#525C6F" fill-rule="evenodd"/></svg><svg width="22" height="22" viewBox="-2 -2 22 22" id="src--svg--redo" x="112" y="44"><title>redo</title><g transform="translate(-86 -47)" fill="none" fill-rule="evenodd"><path d="M94.741 52.714c2.281 0 4.346.925 5.84 2.42l2.419-2.42v7.293h-7.229l2.545-2.607c-1.421-1.214-3.241-1.975-5.256-1.975-2.421 0-4.57 1.366-6.06 3.044 1.148-3.182 4.165-5.755 7.741-5.755z" fill="#CBCBCB"/></g></svg><svg width="22" height="22" viewBox="-2 -2 22 22" id="src--svg--redo_active" x="112" y="66"><title>redo hover</title><g transform="translate(-146 -47)" fill="none" fill-rule="evenodd"><path d="M154.741 52.714c2.281 0 4.346.925 5.84 2.42l2.419-2.42v7.293h-7.229l2.545-2.607c-1.421-1.214-3.241-1.975-5.256-1.975-2.421 0-4.57 1.366-6.06 3.044 1.148-3.182 4.165-5.755 7.741-5.755z" fill="#525C6F"/></g></svg><svg width="22" height="22" viewBox="-2 -2 22 22" id="src--svg--resize_view" x="112" y="88"><title>视图大小</title><g transform="translate(-214 -78)" fill="none" fill-rule="evenodd"><g transform="translate(216 80)"><path d="M8.001 13h1v-1h-1v1z" fill="#525C6F"/><rect fill="#525C6F" y="7" width="6" height="6" rx="1"/><path fill="#FFF" d="M1 8h4v4H1z"/><path fill="#525C6F" d="M5 7h1v1H5zM6 6h1v1H6zM7 5h1v1H7z"/><path d="M7 3v1h1v1h1v1h1V3H7zM10 13h1v-1h-1v1zM12.5 12.001H12V13h1.001v-.999h-.5zM12 11.001h1.001v-1H12v1zM12 9.001h1.001V8H12v1.001zM12 7h1.001V6H12v1zM12 5h1.001V4H12v1zM0 5h1V4H0v1zM12 3.001h1.001v-1H12v1zM0 3.001h1v-1H0v1zM12 0v1h1V0h-1zM10 0v1h1V0h-1zM8 0v1h1V0H8zM6 0v1h1V0H6zM4 0v1h1V0H4zM2 0v1h1V0H2zM0 0v1h1V0H0z" fill="#525C6F"/></g></g></svg><svg width="22" height="22" viewBox="-2 -2 22 22" id="src--svg--screenshot" y="110"><title>截图</title><g transform="translate(-184 -78)" fill="none" fill-rule="evenodd"><g transform="translate(186 80)" fill="#525C6F"><path d="M2 0v2H0v1h10v6h1V2H3V0H2z"/><path d="M2 4v7h8v2h1v-2h3v-1H3V4H2z"/></g></g></svg><svg width="22" height="22" viewBox="-2 -2 22 22" id="src--svg--screenshot_x" x="22" y="110"><title>隐藏截图</title><g transform="translate(-184 -108)" fill="none" fill-rule="evenodd"><g transform="translate(186 110)"><path d="M2 4v7h8v2h1v-2h3v-1H3V4H2zM2 0v2H0v1h3V0H2z" fill="#525C6F"/><path d="M4 3h1V2H4v1zM6 3h1V2H6v1zM8 3h1.001V2H8v1zM10 3h1V2h-1v1zM10 5h1V3.999h-1V5zM10 7h1V6h-1v1zM10 9h1V8h-1v1z" fill="#8C8F94"/></g></g></svg><svg width="22" height="22" viewBox="-2 -2 22 22" id="src--svg--sync" x="44" y="110"><title>Slice 1 Copy 6</title><g transform="translate(1 2)" fill="#398DEE" fill-rule="evenodd"><path d="M1.004 6.762a7 7 0 0 0 13.313 3.258l-1.007-.308A6 6 0 0 1 1.957 7.053l-.953-.291zm1.043-3.446A7 7 0 0 1 14.98 6.458l-1.086-.332A6.001 6.001 0 0 0 3.006 3.61l-.96-.294z"/><path d="M0 7.084h3L1.5 5zM13 6h3l-1.5 2.084z"/></g></svg><svg width="22" height="22" viewBox="-2 -2 22 22" id="src--svg--table" x="66" y="110"><title>表格</title><g transform="translate(-94 -78)" fill="none" fill-rule="evenodd"><g transform="translate(96 81)"><path d="M1.007 0C.45 0 0 .449 0 1V12c0 .552.451 1 1.007 1h11.986C13.55 13 14 12.553 14 12V1C14 .447 13.549 0 12.993 0H1.007z" fill="#525C6F"/><path d="M13 12.002C13 11.998 1.007 12 1.007 12 1.001 12 1 .998 1 .998 1 1 12.993 1 12.993 1 12.999 1 13 12.003 13 12.003z" fill="#FFF"/><path d="M.538 5H14V4H0v1h.538zM.538 9H14V8H0v1h.538z" fill="#525C6F"/><path d="M4 .59V13h1V0H4v.59zM9 .59V13h1V0H9v.59z" fill="#525C6F"/></g></g></svg><svg width="22" height="22" viewBox="-2 -2 22 22" id="src--svg--table_cell_align_bottom" x="88" y="110"><title>末端对齐</title><g transform="translate(-609 -16)" fill="none" fill-rule="evenodd"><g transform="matrix(1 0 0 -1 611 31)" fill="#525C6F"><path d="M0 0h13v1H0zM6 3v1H5v1H4v1h2v7h1V6h2.001V5H8V4H7V3H6z"/></g></g></svg><svg width="22" height="22" viewBox="-2 -2 22 22" id="src--svg--table_cell_align_mid" x="110" y="110"><title>水平居中</title><g transform="translate(-576 -16)" fill="none" fill-rule="evenodd"><g transform="translate(578 17)" fill="#525C6F"><path d="M0 7h13v1H0zM6 9v1H5v1H4v1h2v3h1v-3h2.001v-1H8v-1H7V9H6zM6 6V5H5V4H4V3h2V0h1v3h2.001v1H8v1H7v1H6z"/></g></g></svg><svg width="22" height="22" viewBox="-2 -2 22 22" id="src--svg--table_cell_align_top" x="134"><title>顶端对齐</title><g transform="translate(-541 -16)" fill="none" fill-rule="evenodd"><g transform="translate(543 18)" fill="#525C6F"><path d="M0 0h13v1H0zM6 3v1H5v1H4v1h2v7h1V6h2.001V5H8V4H7V3H6z"/></g></g></svg><svg width="22" height="22" viewBox="-2 -2 22 22" id="src--svg--table_cell_border_all" x="134" y="22"><title>所有边框线</title><g transform="translate(-373 -43)" fill="none" fill-rule="evenodd"><g transform="translate(375 45)"><path fill="#525C6F" d="M0 0h13v13H0z"/><path fill="#FFF" d="M1 1h11v11H1z"/><path d="M6 .5V13h1V0H6v.5z" fill="#525C6F"/><path d="M.5 7H13V6H0v1h.5z" fill="#525C6F"/></g></g></svg><svg width="22" height="22" viewBox="-2 -2 22 22" id="src--svg--table_cell_border_left" x="134" y="44"><title>左框线</title><g transform="translate(-463 -43)" fill="none" fill-rule="evenodd"><g transform="matrix(0 1 1 0 465 45)"><path d="M12 2h1v1h-1V2zM12 4h1v1h-1V4zM0 2h1v1H0V2zM0 4h1v1H0V4zM0 10h1v1H0v-1zM0 8h1v1H0V8zM0 6h1v1H0V6zM12 8h1v1h-1V8zM12 10h1v1h-1v-1zM12 12h1v1h-1v-1zM12 6h1v1h-1V6zM10 6h1v1h-1V6zM8 6h1v1H8V6zM6 10h1v1H6v-1zM6 8h1v1H6V8zM2 6h1v1H2V6zM4 6h1v1H4V6zM6 2h1v1H6V2zM6 4h1v1H6V4zM0 12h1v1H0v-1zM10 12h1v1h-1v-1zM8 12h1v1H8v-1zM2 12h1v1H2v-1zM4 12h1v1H4v-1zM6 12h1v1H6v-1zM6 6h1v1H6V6z" fill="#8C8F94"/><path d="M0 0h13v1H0V0z" fill="#525C6F"/></g></g></svg><svg width="22" height="22" viewBox="-2 -2 22 22" id="src--svg--table_cell_border_none" x="134" y="66"><title>无框线</title><g transform="translate(-523 -43)" fill="none" fill-rule="evenodd"><g transform="rotate(90 246.5 291.5)" fill="#8C8F94"><path d="M12 2h1v1h-1V2zM12 4h1v1h-1V4zM8 0h1v1H8V0z"/><path d="M8 0h1v1H8V0zM12 0h1v1h-1V0zM10 0h1v1h-1V0z"/><path d="M8 0h1v1H8V0zM6 0h1v1H6V0zM4 0h1v1H4V0zM2 0h1v1H2V0zM0 0h1v1H0V0zM0 2h1v1H0V2zM0 4h1v1H0V4zM0 10h1v1H0v-1zM0 8h1v1H0V8zM0 6h1v1H0V6zM12 8h1v1h-1V8zM12 10h1v1h-1v-1zM12 12h1v1h-1v-1zM12 6h1v1h-1V6zM10 6h1v1h-1V6zM8 6h1v1H8V6zM6 10h1v1H6v-1zM6 8h1v1H6V8zM2 6h1v1H2V6zM4 6h1v1H4V6zM6 2h1v1H6V2zM6 4h1v1H6V4zM0 12h1v1H0v-1zM10 12h1v1h-1v-1zM8 12h1v1H8v-1zM2 12h1v1H2v-1zM4 12h1v1H4v-1zM6 12h1v1H6v-1zM6 6h1v1H6V6z"/></g></g></svg><svg width="22" height="22" viewBox="-2 -2 22 22" id="src--svg--table_cell_border_out" x="134" y="88"><title>外框线</title><g transform="translate(-553 -43)" fill="none" fill-rule="evenodd"><g transform="rotate(90 261.5 306.5)"><path d="M0 12h13v1H0v-1z" fill="#525C6F"/><path fill="#525C6F" d="M12 0h1v13h-1zM0 0h1v13H0z"/><path d="M0 0h13v1H0V0z" fill="#525C6F"/><path d="M10 6h1v1h-1V6zM8 6h1v1H8V6zM6 10h1v1H6v-1zM6 8h1v1H6V8zM2 6h1v1H2V6zM4 6h1v1H4V6zM6 2h1v1H6V2zM6 4h1v1H6V4zM6 6h1v1H6V6z" fill="#8C8F94"/></g></g></svg><svg width="22" height="22" viewBox="-2 -2 22 22" id="src--svg--table_cell_border_right" x="134" y="110"><title>右框线</title><g transform="translate(-493 -43)" fill="none" fill-rule="evenodd"><g transform="rotate(90 231.5 276.5)"><path d="M0 0h13v1H0V0z" fill="#525C6F"/><path d="M12 2h1v1h-1V2zM12 4h1v1h-1V4zM0 2h1v1H0V2zM0 4h1v1H0V4zM0 10h1v1H0v-1zM0 8h1v1H0V8zM0 6h1v1H0V6zM12 8h1v1h-1V8zM12 10h1v1h-1v-1zM12 12h1v1h-1v-1zM12 6h1v1h-1V6zM10 6h1v1h-1V6zM8 6h1v1H8V6zM6 10h1v1H6v-1zM6 8h1v1H6V8zM2 6h1v1H2V6zM4 6h1v1H4V6zM6 2h1v1H6V2zM6 4h1v1H6V4zM0 12h1v1H0v-1zM10 12h1v1h-1v-1zM8 12h1v1H8v-1zM2 12h1v1H2v-1zM4 12h1v1H4v-1zM6 12h1v1H6v-1zM6 6h1v1H6V6z" fill="#8C8F94"/></g></g></svg><svg width="22" height="22" viewBox="-2 -2 22 22" id="src--svg--table_cell_border_top" y="132"><title>上框线</title><g transform="translate(-403 -43)" fill="none" fill-rule="evenodd"><g transform="translate(405 45)"><path d="M12 2h1v1h-1V2zM12 4h1v1h-1V4zM0 2h1v1H0V2zM0 4h1v1H0V4zM0 10h1v1H0v-1zM0 8h1v1H0V8zM0 6h1v1H0V6zM12 8h1v1h-1V8zM12 10h1v1h-1v-1zM12 12h1v1h-1v-1zM12 6h1v1h-1V6zM10 6h1v1h-1V6zM8 6h1v1H8V6zM6 10h1v1H6v-1zM6 8h1v1H6V8zM2 6h1v1H2V6zM4 6h1v1H4V6zM6 2h1v1H6V2zM6 4h1v1H6V4zM0 12h1v1H0v-1zM10 12h1v1h-1v-1zM8 12h1v1H8v-1zM2 12h1v1H2v-1zM4 12h1v1H4v-1zM6 12h1v1H6v-1zM6 6h1v1H6V6z" fill="#8C8F94"/><path d="M0 0h13v1H0V0z" fill="#525C6F"/></g></g></svg><svg width="22" height="22" viewBox="-2 -2 22 22" id="src--svg--table_cell_broder_bottom" x="22" y="132"><title>下框线</title><g transform="translate(-433 -43)" fill="none" fill-rule="evenodd"><g transform="matrix(1 0 0 -1 435 58)"><path d="M12 2h1v1h-1V2zM12 4h1v1h-1V4zM0 2h1v1H0V2zM0 4h1v1H0V4zM0 10h1v1H0v-1zM0 8h1v1H0V8zM0 6h1v1H0V6zM12 8h1v1h-1V8zM12 10h1v1h-1v-1zM12 12h1v1h-1v-1zM12 6h1v1h-1V6zM10 6h1v1h-1V6zM8 6h1v1H8V6zM6 10h1v1H6v-1zM6 8h1v1H6V8zM2 6h1v1H2V6zM4 6h1v1H4V6zM6 2h1v1H6V2zM6 4h1v1H6V4zM0 12h1v1H0v-1zM10 12h1v1h-1v-1zM8 12h1v1H8v-1zM2 12h1v1H2v-1zM4 12h1v1H4v-1zM6 12h1v1H6v-1zM6 6h1v1H6V6z" fill="#8C8F94"/><path d="M0 0h13v1H0V0z" fill="#525C6F"/></g></g></svg><svg width="24" height="22" viewBox="-2 -2 24 22" id="src--svg--table_cell_merge"><title>合并单元格</title><g transform="translate(-436 -73)" fill="none" fill-rule="evenodd"><g transform="translate(437 75)" fill="#525C6F"><path d="M8 6H7V5H6V4H5v2H2v1h3v2.001h1V8h1V7h1V6zM10 6h1V5h1V4h1v2h3v1h-3v2.001h-1V8h-1V7h-1V6z"/><path d="M8 2.882V0H0v13h8v-2.498H7V12H1V1h6v1.882h1zM10 2.882V0h8v13h-8v-2.498h1V12h6V1h-6v1.882h-1z"/></g></g></svg><svg width="22" height="22" viewBox="-2 -2 22 22" id="src--svg--table_hide_border" x="66" y="132"><title>隐藏网格</title><g transform="translate(-473 -73)" fill="none" fill-rule="evenodd"><g transform="translate(475 75)"><path d="M13 0v13H0V0h13z" fill="#525C6F"/><path d="M1 12h10.998L12 1H1.014L1 12z" fill="#FFF"/><path fill="#B9BEC9" d="M6 1h1v1H6zM5 1h1v2H5zM4 1h1v3H4zM3 2h1v3H3zM2 3h1v3H2zM1 4h1v3H1zM11 7h1v3h-1zM10 8h1v3h-1zM9 9h1v3H9z"/><path fill="#B9BEC9" d="M8 10h2v2H8z"/><path fill="#B9BEC9" d="M7 11h3v1H7zM11 1h1v2h-1zM10 1h1v3h-1zM9 2h1v3H9zM8 3h1v3H8zM7 4h1v3H7zM6 5h1v3H6zM5 6h1v3H5zM4 7h1v3H4zM3 8h1v3H3zM2 9h1v3H2zM1 10h1v2H1z"/></g></g></svg><svg width="22" height="22" viewBox="-2 -2 22 22" id="src--svg--table_insert_delete" x="88" y="132"><title>插入／删除</title><g transform="translate(-403 -73)" fill="none" fill-rule="evenodd"><g transform="translate(404 75)"><path d="M3.999 3H15c.552 0 .999.456.999.995v8.01c0 .55-.447.995-.999.995H4C3.447 13 3 12.544 3 12.005v-8.01c0-.55.447-.995.999-.995z" fill="#525C6F"/><path d="M4 12.005C4 11.996 15.001 12 15.001 12L15 3.995C15 4.004 3.999 4 3.999 4L4 12.005z" fill="#FFF"/><path d="M4.5 10H16V9H4v1h.5zM4.5 7H16V6H4v1h.5z" fill="#525C6F"/><path d="M11 3.5V13h1V3h-1v.5zM7 3.5V13h1V3H7v.5z" fill="#525C6F"/><rect fill="#D5D7DC" width="13" height="4" rx="1"/><path d="M.999 0H12c.552 0 .999.443.999 1.01v1.98c0 .558-.447 1.01-.999 1.01H1A.999.999 0 0 1 0 2.99V1.01C0 .451.447 0 .999 0z" fill="#525C6F"/><path d="M1 2.99C1 3.004.998 3 .999 3H12C11.998 3 12 2.998 12 2.99V1.01c0-.013.002-.01.001-.01H1c.003 0 .001.002.001.01v1.98z" fill="#D5D7DC"/><path fill="#525C6F" d="M4 1h1v2H4zM8 1h1v2H8z"/></g></g></svg><svg width="22" height="22" viewBox="-2 -2 22 22" id="src--svg--text_background" x="110" y="132"><title>文字填充</title><g transform="translate(-312 -16)" fill="none" fill-rule="evenodd"><g transform="translate(314 19)"><path fill="#FFF" d="M0 10h1v1H0zM1 11h3v1H1z"/><path d="M5.998 2.053L7.094.97 7.231 0H12v5.41l-1.029.61-1.429 1.33-.967.194-4.024-4.062 1.447-1.43z" fill="#D5D7DC"/><path d="M3 8h1v3H3V8z" fill="#414C62"/><path d="M3 5v4.001H2V10H1v1h3v-1h4v-.999h-.999v-1h-1v-1H5v1H4v-1h1V6H4V5H3z" fill="#525C6F"/><path d="M7 6h1v1H7V6zM5 4h1v1H5V4zM6 5h1v1H6V5zM11 5h1v1h-1V5zM10 6h1v1h-1V6zM8 7h2v1H8V7zM4 3h1v1H4V3zM5 2h1v1H5V2zM6 1h1v1H6V1zM7 0h1v1H7V0z" fill="#414C62"/></g></g></svg><svg width="22" height="22" viewBox="-2 -2 22 22" id="src--svg--text_color" x="132" y="132"><title>文字颜色</title><g transform="translate(-263 -17)" fill="none" fill-rule="evenodd"><g transform="translate(266 20)"><path d="M4.665 0L0 11h1.461l1.262-3.081h5.446l1.261 3.08h1.477L6.243 0H4.665z" fill="#414C62"/><path d="M5.429 1.356h.067l2.241 5.5H3.155l2.274-5.5z" fill="#FFF"/></g></g></svg><svg width="22" height="22" viewBox="-2 -2 22 22" id="src--svg--underline" x="156"><title>下划线</title><g transform="translate(-179 -17)" fill="none" fill-rule="evenodd"><g transform="translate(183 20)" fill="#525C6F"><path d="M0 13h11v-1H0v1zM2.264 0v5.576c0 1.08.231 1.896.724 2.451.51.57 1.31.863 2.404.863 1.08 0 1.88-.293 2.405-.863.477-.555.724-1.372.724-2.45V0h1.264v5.561c0 1.433-.37 2.528-1.095 3.283C7.935 9.614 6.841 10 5.392 10 3.944 10 2.85 9.614 2.11 8.86 1.37 8.09 1 6.993 1 5.56V.001h1.264z"/></g></g></svg><svg width="22" height="22" viewBox="-2 -2 22 22" id="src--svg--undo" x="68" y="44"><title>undo</title><g transform="translate(-66 -47)" fill="none" fill-rule="evenodd"><path d="M75.259 52.714a8.233 8.233 0 0 0-5.84 2.42L67 52.713v7.293h7.229L71.684 57.4c1.421-1.214 3.241-1.975 5.256-1.975 2.421 0 4.57 1.366 6.06 3.044-1.148-3.182-4.165-5.755-7.741-5.755z" fill="#CBCBCB"/></g></svg><svg width="22" height="22" viewBox="-2 -2 22 22" id="src--svg--undo_active" x="156" y="22"><title>undo hover</title><g transform="translate(-126 -47)" fill="none" fill-rule="evenodd"><path d="M135.259 52.714a8.233 8.233 0 0 0-5.84 2.42L127 52.713v7.293h7.229l-2.545-2.607c1.421-1.214 3.241-1.975 5.256-1.975 2.421 0 4.57 1.366 6.06 3.044-1.148-3.182-4.165-5.755-7.741-5.755z" fill="#525C6F"/></g></svg></svg>