<?xml version="1.0" encoding="utf-8"?>
<!-- Generator: Adobe Illustrator 16.0.0, SVG Export Plug-In . SVG Version: 6.00 Build 0)  -->
<!DOCTYPE svg PUBLIC "-//W3C//DTD SVG 1.1//EN" "http://www.w3.org/Graphics/SVG/1.1/DTD/svg11.dtd">
<svg version="1.1" id="Layer_1" xmlns="http://www.w3.org/2000/svg" xmlns:xlink="http://www.w3.org/1999/xlink" x="0px" y="0px"
	 width="100px" height="100px" viewBox="0 0 100 100" enable-background="new 0 0 100 100" xml:space="preserve">
<path d="M31.013,56.057h4.896c-0.006,2.304,0.04,5.697,0.11,10.858l0.012,0.874c0.031,1.944,1.637,3.525,3.58,3.525h4.728
	c1.365,0,2.593-0.758,3.202-1.979l8.201-16.402c0.66,0.68,1.576,1.08,2.566,1.08h12.25c1.974,0,3.579-1.605,3.579-3.58v-17.3
	c0-1.974-1.605-3.579-3.579-3.579h-12.25c-1.903,0-3.465,1.494-3.573,3.371l-1.898-2.146c-0.677-0.779-1.659-1.226-2.695-1.226
	H31.016c-1.974,0-3.58,1.605-3.58,3.579v19.345C27.436,54.451,29.041,56.057,31.013,56.057z M58.308,31.555h12.25
	c0.871,0,1.579,0.708,1.579,1.579v17.3c0,0.872-0.708,1.58-1.579,1.58h-12.25c-0.597,0-1.121-0.34-1.391-0.862V33.945h-0.188v-0.812
	C56.729,32.263,57.437,31.555,58.308,31.555z M29.436,33.134c0-0.871,0.709-1.579,1.58-1.579h19.125
	c0.457,0,0.889,0.196,1.188,0.541l2.513,2.869l1.075-0.045v15.482h-0.146l-9.019,18.04c-0.269,0.538-0.811,0.872-1.413,0.872h-4.728
	c-0.857,0-1.566-0.698-1.58-1.556l-0.012-0.871c-0.081-5.96-0.131-9.557-0.104-11.819l0.012-1.012h-6.914
	c-0.87,0-1.577-0.708-1.577-1.578V33.134z"/>
<path d="M60.823,39.293c1.75,0,3.174-1.424,3.174-3.174s-1.424-3.174-3.174-3.174s-3.174,1.424-3.174,3.174
	S59.073,39.293,60.823,39.293z M60.823,34.945c0.647,0,1.174,0.526,1.174,1.174s-0.526,1.174-1.174,1.174s-1.174-0.526-1.174-1.174
	S60.176,34.945,60.823,34.945z"/>
</svg>
