<?xml version="1.0" encoding="utf-8"?>
<!-- Generator: Adobe Illustrator 16.0.0, SVG Export Plug-In . SVG Version: 6.00 Build 0)  -->
<!DOCTYPE svg PUBLIC "-//W3C//DTD SVG 1.1//EN" "http://www.w3.org/Graphics/SVG/1.1/DTD/svg11.dtd">
<svg version="1.1" id="Layer_1" xmlns="http://www.w3.org/2000/svg" xmlns:xlink="http://www.w3.org/1999/xlink" x="0px" y="0px"
	 width="100px" height="100px" viewBox="0 0 100 100" enable-background="new 0 0 100 100" xml:space="preserve">
<g>
	<path d="M70.56,44.813h-4.896c0.006-2.304-0.04-5.698-0.11-10.859l-0.012-0.874c-0.031-1.944-1.637-3.526-3.58-3.526h-4.728
		c-1.365,0-2.593,0.758-3.202,1.979l-8.201,16.403c-0.66-0.68-1.576-1.081-2.566-1.081h-12.25c-1.974,0-3.58,1.606-3.58,3.58v17.3
		c0,1.974,1.606,3.579,3.58,3.579h12.25c1.904,0,3.465-1.494,3.574-3.371l1.898,2.146c0.677,0.779,1.659,1.226,2.695,1.226h19.125
		c1.974,0,3.58-1.605,3.58-3.579V48.391C74.137,46.418,72.532,44.813,70.56,44.813z M43.265,69.314h-12.25
		c-0.871,0-1.58-0.708-1.58-1.579v-17.3c0-0.871,0.708-1.58,1.58-1.58h12.25c0.597,0,1.121,0.34,1.391,0.863v17.206h0.188v0.812
		C44.845,68.606,44.136,69.314,43.265,69.314z M72.137,67.735c0,0.871-0.709,1.579-1.58,1.579H51.432
		c-0.456,0-0.889-0.196-1.188-0.541l-2.512-2.869l-1.075,0.045V50.467h0.146l9.019-18.04c0.269-0.538,0.811-0.873,1.413-0.873h4.728
		c0.857,0,1.566,0.699,1.58,1.556l0.012,0.871c0.081,5.96,0.131,9.557,0.104,11.82l-0.012,1.012h6.914
		c0.87,0,1.577,0.708,1.577,1.578V67.735z"/>
	<path d="M40.75,61.576c-1.75,0-3.174,1.424-3.174,3.174S39,67.924,40.75,67.924s3.174-1.424,3.174-3.174S42.5,61.576,40.75,61.576z
		 M40.75,65.924c-0.647,0-1.174-0.526-1.174-1.174s0.526-1.174,1.174-1.174s1.174,0.526,1.174,1.174S41.397,65.924,40.75,65.924z"/>
</g>
</svg>
