<?xml version="1.0" encoding="utf-8"?>
<!-- Generator: Adobe Illustrator 19.2.1, SVG Export Plug-In . SVG Version: 6.00 Build 0)  -->
<svg version="1.1" id="Layer_1" xmlns="http://www.w3.org/2000/svg" xmlns:xlink="http://www.w3.org/1999/xlink" x="0px" y="0px"
	 width="40px" height="54px" viewBox="0 0 40 54" enable-background="new 0 0 40 54" xml:space="preserve">
<g>
	<path fill="#333333" d="M20.1,50.7c-10.2,0-18.4-8.3-18.4-18.4c0-10.2,8.3-18.4,18.4-18.4s18.4,8.3,18.4,18.4
		C38.5,42.4,30.2,50.7,20.1,50.7z M20.1,14.8c-9.6,0-17.4,7.8-17.4,17.4s7.8,17.4,17.4,17.4c9.6,0,17.4-7.8,17.4-17.4
		S29.7,14.8,20.1,14.8z"/>
</g>
<g>
	<g>
		<defs>
			<rect id="SVGID_1_" x="-699" y="-465" width="1456" height="1024"/>
		</defs>
		<clipPath id="SVGID_2_">
			<use xlink:href="#SVGID_1_"  overflow="visible"/>
		</clipPath>
	</g>
</g>
<polygon fill-rule="evenodd" clip-rule="evenodd" fill="#333333" points="24,33 24,24 16,24 16,33 11.5,33 20,41 28.5,33 "/>
</svg>
